<svg xmlns="http://www.w3.org/2000/svg" width="101" height="10" viewBox="0 0 101 10"><g transform="translate(-21.3 -23.8)"><path d="M96.32,8.818a.612.612,0,0,1-.193-.465V2.468q0-.506-.53-.506H94.312a.556.556,0,0,1-.632-.627.556.556,0,0,1,.632-.626h5.035a.655.655,0,0,1,.469.172.592.592,0,0,1,.184.454.6.6,0,0,1-.184.455.659.659,0,0,1-.469.172H98.084q-.531,0-.53.506V8.353a.612.612,0,0,1-.194.465.835.835,0,0,1-1.04,0Zm-10.377.02a.594.594,0,0,1-.214-.506V3.9a3.284,3.284,0,0,1,.51-1.921,2.9,2.9,0,0,1,1.3-1.051A4.388,4.388,0,0,1,89.215.607a4.58,4.58,0,0,1,1.763.324,2.545,2.545,0,0,1,1.234,1.061,3.689,3.689,0,0,1,.448,1.932V8.332a.555.555,0,0,1-.224.5.857.857,0,0,1-.49.151.812.812,0,0,1-.479-.151.564.564,0,0,1-.214-.5V3.924a2.034,2.034,0,0,0-.54-1.568,2.134,2.134,0,0,0-1.5-.5,2.259,2.259,0,0,0-1.468.5A1.874,1.874,0,0,0,87.135,3.9V8.332a.587.587,0,0,1-.224.5.788.788,0,0,1-.49.172A.775.775,0,0,1,85.943,8.838Zm-9.46-.02a.728.728,0,0,1-.255-.465l-.448-5c-.013-.161-.068-.242-.163-.242s-.164.067-.2.2L73.945,7.341a.9.9,0,0,1-.346.465.933.933,0,0,1-.509.141.9.9,0,0,1-.836-.607L70.764,3.317c-.054-.134-.122-.2-.2-.2-.055,0-.1.081-.122.242l-.49,5a.65.65,0,0,1-.234.465.752.752,0,0,1-.5.182.7.7,0,0,1-.541-.233.663.663,0,0,1-.173-.556l.877-6.795a.811.811,0,0,1,.316-.607.994.994,0,0,1,.6-.2,1.216,1.216,0,0,1,.6.152.79.79,0,0,1,.378.454l1.61,4.531c.068.162.136.243.2.243s.149-.081.2-.243L74.9,1.213a.785.785,0,0,1,.377-.454,1.18,1.18,0,0,1,.58-.152,1.037,1.037,0,0,1,.612.2.8.8,0,0,1,.326.607l.877,6.795a.675.675,0,0,1-.163.556.693.693,0,0,1-.55.233A.726.726,0,0,1,76.483,8.818Zm-10.4,0a.732.732,0,0,1-.255-.465l-.448-5c-.013-.161-.068-.242-.163-.242s-.163.067-.2.2L63.547,7.341a.9.9,0,0,1-.347.465.933.933,0,0,1-.509.141.9.9,0,0,1-.836-.607L60.367,3.317c-.054-.134-.122-.2-.2-.2-.055,0-.1.081-.122.242l-.49,5a.65.65,0,0,1-.234.465.752.752,0,0,1-.5.182.7.7,0,0,1-.54-.233.66.66,0,0,1-.174-.556l.877-6.795A.811.811,0,0,1,59.3.809a.994.994,0,0,1,.6-.2,1.222,1.222,0,0,1,.6.152.788.788,0,0,1,.377.454l1.61,4.531c.068.162.136.243.2.243s.149-.081.2-.243l1.611-4.531a.785.785,0,0,1,.377-.454,1.181,1.181,0,0,1,.581-.152,1.036,1.036,0,0,1,.611.2.8.8,0,0,1,.327.607l.877,6.795a.678.678,0,0,1-.164.556.692.692,0,0,1-.55.233A.726.726,0,0,1,66.085,8.818ZM50.632,8.444a4.164,4.164,0,0,1-2.111-3.691,4.237,4.237,0,0,1,.571-2.225,4.049,4.049,0,0,1,1.539-1.487A4.366,4.366,0,0,1,52.783.506a4.251,4.251,0,0,1,2.13.536,4.026,4.026,0,0,1,1.508,1.487,4.3,4.3,0,0,1,.561,2.225,4.237,4.237,0,0,1-.561,2.174A4.123,4.123,0,0,1,52.783,9,4.241,4.241,0,0,1,50.632,8.444Zm.153-5.835a3.059,3.059,0,0,0-.775,2.144,3.277,3.277,0,0,0,.347,1.5,2.8,2.8,0,0,0,.978,1.1,2.575,2.575,0,0,0,1.448.415,2.525,2.525,0,0,0,1.437-.415,2.836,2.836,0,0,0,.968-1.1,3.289,3.289,0,0,0,.347-1.5,3.059,3.059,0,0,0-.775-2.144,2.75,2.75,0,0,0-3.975,0ZM42.61,8.454a4,4,0,0,1-1.489-1.516,4.437,4.437,0,0,1-.55-2.225,4.405,4.405,0,0,1,.53-2.184,3.763,3.763,0,0,1,1.5-1.487A4.574,4.574,0,0,1,44.852.506a6.3,6.3,0,0,1,1.009.081A4.808,4.808,0,0,1,46.87.869a.647.647,0,0,1,.3.274.706.706,0,0,1,.092.333.692.692,0,0,1-.174.465.573.573,0,0,1-.458.2.837.837,0,0,1-.286-.06,6.165,6.165,0,0,0-.764-.223,3.844,3.844,0,0,0-.867-.1,2.481,2.481,0,0,0-1.426.415,2.774,2.774,0,0,0-.949,1.1A3.412,3.412,0,0,0,42,4.793a3.1,3.1,0,0,0,.755,2.1,2.512,2.512,0,0,0,2,.869,3.494,3.494,0,0,0,1.081-.172,2.719,2.719,0,0,0,.8-.374.84.84,0,0,1,.387-.121.536.536,0,0,1,.428.192.656.656,0,0,1,.163.435.773.773,0,0,1-.347.627,3.146,3.146,0,0,1-1.081.454A5.67,5.67,0,0,1,44.73,9,4.132,4.132,0,0,1,42.61,8.454Zm-4.557.384a.549.549,0,0,1-.214-.465V3.519A.623.623,0,0,1,38.053,3a.754.754,0,0,1,.958,0,.623.623,0,0,1,.214.516V8.373a.549.549,0,0,1-.214.465.79.79,0,0,1-.958,0Zm-8.685,0a.594.594,0,0,1-.214-.506V3.9a3.284,3.284,0,0,1,.51-1.921,2.9,2.9,0,0,1,1.3-1.051A4.388,4.388,0,0,1,32.64.607,4.58,4.58,0,0,1,34.4.931a2.545,2.545,0,0,1,1.234,1.061,3.689,3.689,0,0,1,.448,1.932V8.332a.555.555,0,0,1-.224.5.857.857,0,0,1-.49.151.812.812,0,0,1-.479-.151.564.564,0,0,1-.214-.5V3.924a2.034,2.034,0,0,0-.54-1.568,2.134,2.134,0,0,0-1.5-.5,2.259,2.259,0,0,0-1.468.5A1.874,1.874,0,0,0,30.56,3.9V8.332a.587.587,0,0,1-.224.5.788.788,0,0,1-.49.172A.775.775,0,0,1,29.368,8.838Zm-7.889-.394a4.16,4.16,0,0,1-2.111-3.691,4.236,4.236,0,0,1,.571-2.225,4.058,4.058,0,0,1,1.54-1.487,4.362,4.362,0,0,1,2.15-.536,4.257,4.257,0,0,1,2.131.536,4.026,4.026,0,0,1,1.508,1.487,4.3,4.3,0,0,1,.561,2.225,4.237,4.237,0,0,1-.561,2.174A4.123,4.123,0,0,1,23.629,9,4.237,4.237,0,0,1,21.479,8.444Zm.152-5.835a3.062,3.062,0,0,0-.774,2.144,3.277,3.277,0,0,0,.347,1.5,2.8,2.8,0,0,0,.978,1.1,2.572,2.572,0,0,0,1.447.415,2.523,2.523,0,0,0,1.437-.415,2.821,2.821,0,0,0,.968-1.1,3.277,3.277,0,0,0,.347-1.5,3.058,3.058,0,0,0-.774-2.144,2.751,2.751,0,0,0-3.976,0ZM13.456,8.454a4,4,0,0,1-1.489-1.516,4.429,4.429,0,0,1-.551-2.225,4.415,4.415,0,0,1,.53-2.184,3.775,3.775,0,0,1,1.5-1.487A4.58,4.58,0,0,1,15.7.506a6.3,6.3,0,0,1,1.009.081,4.808,4.808,0,0,1,1.009.283.647.647,0,0,1,.3.274.706.706,0,0,1,.092.333.7.7,0,0,1-.174.465.573.573,0,0,1-.459.2.837.837,0,0,1-.285-.06,6.211,6.211,0,0,0-.764-.223,3.844,3.844,0,0,0-.867-.1,2.484,2.484,0,0,0-1.427.415,2.779,2.779,0,0,0-.948,1.1,3.412,3.412,0,0,0-.337,1.517A3.1,3.1,0,0,0,13.6,6.9a2.515,2.515,0,0,0,2,.869,3.494,3.494,0,0,0,1.081-.172,2.712,2.712,0,0,0,.795-.374A.843.843,0,0,1,17.86,7.1a.533.533,0,0,1,.427.192.652.652,0,0,1,.164.435.773.773,0,0,1-.347.627,3.146,3.146,0,0,1-1.081.454A5.676,5.676,0,0,1,15.576,9,4.13,4.13,0,0,1,13.456,8.454ZM8.9,8.838a.547.547,0,0,1-.214-.465V3.519A.62.62,0,0,1,8.9,3a.754.754,0,0,1,.958,0,.622.622,0,0,1,.213.516V8.373a.549.549,0,0,1-.213.465.79.79,0,0,1-.958,0Zm-8.685,0A.592.592,0,0,1,0,8.332V3.9A3.291,3.291,0,0,1,.509,1.982,2.9,2.9,0,0,1,1.814.931,4.388,4.388,0,0,1,3.487.607,4.583,4.583,0,0,1,5.25.931,2.553,2.553,0,0,1,6.484,1.992a3.689,3.689,0,0,1,.448,1.932V8.332a.555.555,0,0,1-.224.5.859.859,0,0,1-.49.151.81.81,0,0,1-.479-.151.564.564,0,0,1-.214-.5V3.924a2.034,2.034,0,0,0-.54-1.568,2.137,2.137,0,0,0-1.5-.5,2.258,2.258,0,0,0-1.468.5A1.874,1.874,0,0,0,1.407,3.9V8.332a.587.587,0,0,1-.224.5A.788.788,0,0,1,.693,9,.773.773,0,0,1,.214,8.838Zm82.16-.04H80.326a1.107,1.107,0,0,1-.815-.3,1.09,1.09,0,0,1-.306-.809V1.76A.986.986,0,0,1,79.521,1a1.057,1.057,0,0,1,.743-.293h3.079a.636.636,0,0,1,.5.172A.63.63,0,0,1,84,1.315a.6.6,0,0,1-.174.425.632.632,0,0,1-.479.182H81.162a.467.467,0,0,0-.53.526V3.559c0,.351.163.526.49.526h2.018a.617.617,0,0,1,.5.183.635.635,0,0,1,.153.424.625.625,0,0,1-.652.608H81.122a.44.44,0,0,0-.49.5V7.038a.457.457,0,0,0,.509.526h2.406a.6.6,0,0,1,.5.193.675.675,0,0,1,.153.435.6.6,0,0,1-.173.425.631.631,0,0,1-.48.182ZM37.89,1.466A.806.806,0,0,1,37.615.85a.784.784,0,0,1,.275-.6A.946.946,0,0,1,38.552,0a.884.884,0,0,1,.632.253.8.8,0,0,1,.265.6.818.818,0,0,1-.265.616.884.884,0,0,1-.632.253A.946.946,0,0,1,37.89,1.466Zm-29.154,0A.806.806,0,0,1,8.461.85a.784.784,0,0,1,.275-.6A.946.946,0,0,1,9.4,0a.884.884,0,0,1,.632.253.8.8,0,0,1,.266.6.821.821,0,0,1-.266.616.884.884,0,0,1-.632.253A.946.946,0,0,1,8.736,1.466Z" transform="translate(21.8 24.3)" fill="#555"/><path d="M96.84,9.5a1.226,1.226,0,0,1-.861-.316,1.113,1.113,0,0,1-.353-.831V2.468s0,0,0,0H94.312A1.048,1.048,0,0,1,93.18,1.335,1.048,1.048,0,0,1,94.312.208h5.035a1.159,1.159,0,0,1,.812.308,1.089,1.089,0,0,1,.341.819,1.1,1.1,0,0,1-.341.82,1.163,1.163,0,0,1-.812.308H98.054s0,0,0,0V8.353a1.111,1.111,0,0,1-.35.829A1.228,1.228,0,0,1,96.84,9.5ZM94.193,1.448a.393.393,0,0,0,.119.014H95.6a.954.954,0,0,1,1.03,1.006V8.353a.116.116,0,0,0,.037.1c.01.009.049.045.177.045s.167-.036.18-.048a.114.114,0,0,0,.034-.1V2.468a.954.954,0,0,1,1.03-1.006h1.264c.088,0,.114-.024.128-.037s.025-.023.025-.09-.015-.08-.025-.089-.04-.037-.128-.037H94.312a.393.393,0,0,0-.119.014.382.382,0,0,0-.013.113A.384.384,0,0,0,94.193,1.448ZM86.422,9.5a1.269,1.269,0,0,1-.78-.263,1.076,1.076,0,0,1-.413-.9V3.9a3.783,3.783,0,0,1,.6-2.208A3.4,3.4,0,0,1,87.355.467a4.906,4.906,0,0,1,1.86-.361,5.1,5.1,0,0,1,1.954.362,3.044,3.044,0,0,1,1.47,1.263,4.188,4.188,0,0,1,.521,2.192V8.332a1.032,1.032,0,0,1-.444.91,1.353,1.353,0,0,1-.769.237,1.307,1.307,0,0,1-.767-.242,1.041,1.041,0,0,1-.426-.9V3.924a1.583,1.583,0,0,0-.378-1.2,1.645,1.645,0,0,0-1.16-.364,1.758,1.758,0,0,0-1.153.384A1.4,1.4,0,0,0,87.635,3.9V8.332a1.075,1.075,0,0,1-.42.893A1.281,1.281,0,0,1,86.422,9.5Zm2.794-8.393a3.912,3.912,0,0,0-1.484.287,2.385,2.385,0,0,0-1.083.875,2.82,2.82,0,0,0-.42,1.635V8.332a.246.246,0,0,0,.016.108.275.275,0,0,0,.177.06.288.288,0,0,0,.186-.069c.01-.008.028-.021.028-.1V3.9a2.354,2.354,0,0,1,.8-1.936,2.756,2.756,0,0,1,1.783-.607,2.622,2.622,0,0,1,1.837.627,2.511,2.511,0,0,1,.7,1.936V8.332a.308.308,0,0,0,.011.093.311.311,0,0,0,.182.054.354.354,0,0,0,.2-.062.28.28,0,0,0,.01-.085V3.924a3.224,3.224,0,0,0-.376-1.673,2.038,2.038,0,0,0-1-.858A4.106,4.106,0,0,0,89.215,1.107ZM76.963,9.5a1.217,1.217,0,0,1-.8-.3,1.236,1.236,0,0,1-.427-.777l0-.026-.323-3.605-.994,2.726a1.394,1.394,0,0,1-.547.711,1.429,1.429,0,0,1-.777.219A1.4,1.4,0,0,1,71.8,7.554l-.016-.039L70.8,4.842,70.447,8.4a1.151,1.151,0,0,1-.407.8,1.262,1.262,0,0,1-.824.3,1.2,1.2,0,0,1-.909-.395,1.16,1.16,0,0,1-.3-.957l.876-6.791A1.3,1.3,0,0,1,69.4.406a1.488,1.488,0,0,1,.9-.3,1.715,1.715,0,0,1,.844.215,1.293,1.293,0,0,1,.607.727l1.342,3.775,1.342-3.775A1.289,1.289,0,0,1,75.04.32a1.678,1.678,0,0,1,.821-.214,1.531,1.531,0,0,1,.9.295,1.3,1.3,0,0,1,.533.956l.876,6.789a1.173,1.173,0,0,1-.283.95A1.19,1.19,0,0,1,76.963,9.5Zm-.238-1.208a.227.227,0,0,0,.083.146.221.221,0,0,0,.155.062c.119,0,.153-.039.173-.062a.178.178,0,0,0,.044-.163L76.3,1.465a.3.3,0,0,0-.118-.249.537.537,0,0,0-.322-.11.682.682,0,0,0-.338.089.288.288,0,0,0-.145.176l0,.009L73.765,5.907a.747.747,0,0,1-.676.58c-.288,0-.511-.185-.665-.549l-.01-.027L70.8,1.374a.292.292,0,0,0-.145-.177.72.72,0,0,0-.361-.09.5.5,0,0,0-.305.105c-.029.021-.1.071-.115.254l0,.014L69,8.275a.165.165,0,0,0,.045.154.205.205,0,0,0,.173.071.255.255,0,0,0,.177-.064.149.149,0,0,0,.057-.119V8.3l.494-5.03c.1-.574.427-.659.616-.659a.716.716,0,0,1,.667.515l.005.013,1.481,4c.147.3.295.3.375.3a.434.434,0,0,0,.242-.064.46.46,0,0,0,.145-.217l1.463-4.011a.7.7,0,0,1,.678-.542.675.675,0,0,1,.661.7ZM66.565,9.5a1.217,1.217,0,0,1-.8-.3,1.241,1.241,0,0,1-.427-.775l0-.028-.323-3.605-.992,2.72a1.393,1.393,0,0,1-.549.717,1.429,1.429,0,0,1-.777.219A1.4,1.4,0,0,1,61.4,7.554l-.016-.039L60.4,4.842,60.049,8.4a1.151,1.151,0,0,1-.407.8,1.262,1.262,0,0,1-.824.3,1.2,1.2,0,0,1-.909-.4,1.156,1.156,0,0,1-.3-.955l.876-6.791A1.3,1.3,0,0,1,59,.406a1.488,1.488,0,0,1,.9-.3,1.722,1.722,0,0,1,.844.215,1.293,1.293,0,0,1,.607.728l1.342,3.775,1.343-3.776A1.289,1.289,0,0,1,64.642.32a1.68,1.68,0,0,1,.822-.214,1.53,1.53,0,0,1,.9.295,1.292,1.292,0,0,1,.534.956l.876,6.79a1.178,1.178,0,0,1-.284.95A1.19,1.19,0,0,1,66.565,9.5Zm-.238-1.209a.23.23,0,0,0,.083.147.221.221,0,0,0,.155.062c.119,0,.153-.039.173-.062a.182.182,0,0,0,.044-.165L65.9,1.467c-.019-.179-.086-.227-.118-.25a.537.537,0,0,0-.322-.111.684.684,0,0,0-.339.089.288.288,0,0,0-.145.176l0,.009L63.367,5.907a.747.747,0,0,1-.676.58c-.288,0-.511-.185-.665-.549l-.011-.027L60.4,1.374a.291.291,0,0,0-.144-.177.725.725,0,0,0-.361-.09.5.5,0,0,0-.305.105c-.029.021-.1.071-.115.254l0,.014-.877,6.8a.163.163,0,0,0,.045.153.2.2,0,0,0,.173.072.255.255,0,0,0,.177-.064.149.149,0,0,0,.057-.119V8.3l.494-5.03c.1-.574.427-.659.616-.659a.716.716,0,0,1,.667.515l.005.013,1.481,4c.147.3.295.3.375.3a.434.434,0,0,0,.242-.064.455.455,0,0,0,.146-.218l1.463-4.011a.7.7,0,0,1,.678-.54.675.675,0,0,1,.661.7ZM52.783,9.5a4.752,4.752,0,0,1-2.4-.623,4.664,4.664,0,0,1-2.361-4.124,4.747,4.747,0,0,1,.643-2.482A4.56,4.56,0,0,1,50.39.6a4.879,4.879,0,0,1,2.393-.6,4.764,4.764,0,0,1,2.376.6,4.536,4.536,0,0,1,1.693,1.668,4.811,4.811,0,0,1,.63,2.479,4.75,4.75,0,0,1-.629,2.426A4.623,4.623,0,0,1,52.783,9.5Zm0-8.494a3.891,3.891,0,0,0-1.909.473,3.573,3.573,0,0,0-1.352,1.306,3.765,3.765,0,0,0-.5,1.968A3.665,3.665,0,0,0,50.881,8.01a3.766,3.766,0,0,0,1.9.49A3.623,3.623,0,0,0,55.99,6.675a3.763,3.763,0,0,0,.493-1.922,3.828,3.828,0,0,0-.491-1.971,3.549,3.549,0,0,0-1.324-1.305A3.777,3.777,0,0,0,52.783,1.006ZM44.73,9.5a4.645,4.645,0,0,1-2.372-.614,4.514,4.514,0,0,1-1.672-1.7,4.951,4.951,0,0,1-.615-2.472,4.918,4.918,0,0,1,.594-2.428A4.272,4.272,0,0,1,42.358.6a5.089,5.089,0,0,1,2.495-.6,6.823,6.823,0,0,1,1.089.087A5.329,5.329,0,0,1,47.055.4l.038.017a1.139,1.139,0,0,1,.515.487,1.184,1.184,0,0,1-.144,1.359,1.067,1.067,0,0,1-.837.376,1.314,1.314,0,0,1-.46-.092,5.693,5.693,0,0,0-.7-.2,3.361,3.361,0,0,0-.754-.088,1.976,1.976,0,0,0-1.146.329,2.263,2.263,0,0,0-.78.907,2.932,2.932,0,0,0-.286,1.3,2.592,2.592,0,0,0,.633,1.776,2.017,2.017,0,0,0,1.62.7,3.011,3.011,0,0,0,.927-.148,2.207,2.207,0,0,0,.646-.3l.031-.023.034-.018a1.31,1.31,0,0,1,.625-.181,1.031,1.031,0,0,1,.809.367,1.163,1.163,0,0,1,.282.759,1.259,1.259,0,0,1-.544,1.025,3.58,3.58,0,0,1-1.258.541A6.189,6.189,0,0,1,44.73,9.5Zm.122-8.494a4.1,4.1,0,0,0-2.011.473,3.243,3.243,0,0,0-1.3,1.293,3.933,3.933,0,0,0-.467,1.941,3.965,3.965,0,0,0,.485,1.978,3.479,3.479,0,0,0,1.3,1.331A3.61,3.61,0,0,0,44.73,8.5a5.192,5.192,0,0,0,1.32-.176,2.63,2.63,0,0,0,.906-.369c.149-.113.149-.191.149-.229a.158.158,0,0,0-.045-.112c-.009-.01-.012-.014-.047-.014a.407.407,0,0,0-.121.045,3.269,3.269,0,0,1-.908.425,4.01,4.01,0,0,1-1.235.2,3,3,0,0,1-2.375-1.042A3.6,3.6,0,0,1,41.5,4.793a3.923,3.923,0,0,1,.387-1.737A3.281,3.281,0,0,1,43,1.76a2.983,2.983,0,0,1,1.707-.5,4.363,4.363,0,0,1,.979.114,6.686,6.686,0,0,1,.827.242.37.37,0,0,0,.111.029c.055,0,.065-.012.078-.027a.2.2,0,0,0,.054-.141.22.22,0,0,0-.033-.1.158.158,0,0,0-.063-.054,4.319,4.319,0,0,0-.882-.245A5.821,5.821,0,0,0,44.852,1.006ZM38.532,9.5a1.269,1.269,0,0,1-.78-.263,1.042,1.042,0,0,1-.413-.864V3.519a1.106,1.106,0,0,1,.4-.905,1.254,1.254,0,0,1,1.584,0,1.106,1.106,0,0,1,.4.906V8.373a1.041,1.041,0,0,1-.412.863A1.271,1.271,0,0,1,38.532,9.5Zm0-6.169a.251.251,0,0,0-.167.063.209.209,0,0,0-.026.125V8.373c0,.055.01.062.017.067a.29.29,0,0,0,.355,0c.006,0,.015-.012.015-.066V3.519a.2.2,0,0,0-.027-.126A.25.25,0,0,0,38.532,3.331ZM29.847,9.5a1.269,1.269,0,0,1-.78-.263,1.076,1.076,0,0,1-.413-.9V3.9a3.783,3.783,0,0,1,.6-2.208A3.4,3.4,0,0,1,30.78.467,4.906,4.906,0,0,1,32.64.107a5.1,5.1,0,0,1,1.954.362,3.044,3.044,0,0,1,1.47,1.263,4.188,4.188,0,0,1,.521,2.192V8.332a1.032,1.032,0,0,1-.444.91,1.353,1.353,0,0,1-.769.237,1.307,1.307,0,0,1-.767-.242,1.041,1.041,0,0,1-.426-.9V3.924a1.583,1.583,0,0,0-.378-1.2,1.645,1.645,0,0,0-1.16-.364,1.758,1.758,0,0,0-1.153.384A1.4,1.4,0,0,0,31.06,3.9V8.332a1.075,1.075,0,0,1-.42.893A1.281,1.281,0,0,1,29.847,9.5ZM32.64,1.107a3.912,3.912,0,0,0-1.484.287,2.385,2.385,0,0,0-1.083.875,2.82,2.82,0,0,0-.42,1.635V8.332a.246.246,0,0,0,.016.108.275.275,0,0,0,.177.06.288.288,0,0,0,.186-.069c.01-.008.028-.021.028-.1V3.9a2.354,2.354,0,0,1,.8-1.936A2.756,2.756,0,0,1,32.64,1.36a2.622,2.622,0,0,1,1.837.627,2.511,2.511,0,0,1,.7,1.936V8.332a.308.308,0,0,0,.011.093.311.311,0,0,0,.182.054.354.354,0,0,0,.2-.062.28.28,0,0,0,.01-.085V3.924a3.224,3.224,0,0,0-.376-1.673,2.038,2.038,0,0,0-1-.858A4.106,4.106,0,0,0,32.64,1.107ZM23.629,9.5a4.751,4.751,0,0,1-2.4-.623,4.659,4.659,0,0,1-2.361-4.124,4.747,4.747,0,0,1,.642-2.482A4.57,4.57,0,0,1,21.237.6a4.877,4.877,0,0,1,2.392-.6,4.771,4.771,0,0,1,2.377.6A4.537,4.537,0,0,1,27.7,2.274a4.811,4.811,0,0,1,.63,2.479A4.75,4.75,0,0,1,27.7,7.179,4.623,4.623,0,0,1,23.629,9.5Zm0-8.494a3.889,3.889,0,0,0-1.908.473,3.534,3.534,0,0,0-1.354,1.307,3.765,3.765,0,0,0-.5,1.967,3.652,3.652,0,0,0,.5,1.919A3.725,3.725,0,0,0,23.629,8.5a3.613,3.613,0,0,0,1.878-.488,3.683,3.683,0,0,0,1.329-1.337,3.764,3.764,0,0,0,.493-1.922,3.828,3.828,0,0,0-.491-1.971,3.549,3.549,0,0,0-1.324-1.305A3.783,3.783,0,0,0,23.629,1.006ZM15.576,9.5A4.64,4.64,0,0,1,13.2,8.886a4.513,4.513,0,0,1-1.671-1.7,4.942,4.942,0,0,1-.616-2.472,4.927,4.927,0,0,1,.593-2.428A4.284,4.284,0,0,1,13.2.6a5.1,5.1,0,0,1,2.5-.6,6.824,6.824,0,0,1,1.089.087A5.329,5.329,0,0,1,17.9.4l.038.017a1.139,1.139,0,0,1,.515.487,1.184,1.184,0,0,1-.143,1.357,1.069,1.069,0,0,1-.839.378,1.33,1.33,0,0,1-.46-.092,5.737,5.737,0,0,0-.7-.2,3.36,3.36,0,0,0-.754-.088,1.977,1.977,0,0,0-1.147.329,2.267,2.267,0,0,0-.779.907,2.932,2.932,0,0,0-.286,1.3,2.6,2.6,0,0,0,.632,1.776,2.02,2.02,0,0,0,1.62.7,3.011,3.011,0,0,0,.927-.148,2.2,2.2,0,0,0,.645-.3L17.2,6.8l.034-.019A1.311,1.311,0,0,1,17.86,6.6a1.027,1.027,0,0,1,.809.369,1.156,1.156,0,0,1,.282.757,1.259,1.259,0,0,1-.544,1.025,3.58,3.58,0,0,1-1.258.541A6.2,6.2,0,0,1,15.576,9.5ZM15.7,1.006a4.111,4.111,0,0,0-2.012.473,3.254,3.254,0,0,0-1.3,1.293,3.941,3.941,0,0,0-.467,1.941A3.956,3.956,0,0,0,12.4,6.69a3.48,3.48,0,0,0,1.305,1.331,3.655,3.655,0,0,0,1.869.479,5.2,5.2,0,0,0,1.32-.176,2.63,2.63,0,0,0,.906-.369c.149-.113.149-.191.149-.229a.155.155,0,0,0-.044-.11C17.9,7.6,17.893,7.6,17.86,7.6a.4.4,0,0,0-.121.045,3.263,3.263,0,0,1-.907.425,4.011,4.011,0,0,1-1.235.2,3.006,3.006,0,0,1-2.376-1.042,3.6,3.6,0,0,1-.877-2.431,3.923,3.923,0,0,1,.387-1.737,3.286,3.286,0,0,1,1.117-1.3,2.985,2.985,0,0,1,1.708-.5,4.362,4.362,0,0,1,.979.114,6.724,6.724,0,0,1,.827.242.379.379,0,0,0,.11.029c.056,0,.066-.012.079-.027a.2.2,0,0,0,.054-.141.22.22,0,0,0-.033-.1.158.158,0,0,0-.063-.054,4.319,4.319,0,0,0-.882-.245A5.821,5.821,0,0,0,15.7,1.006ZM9.378,9.5A1.265,1.265,0,0,1,8.6,9.236a1.035,1.035,0,0,1-.412-.863V3.519a1.1,1.1,0,0,1,.4-.906,1.254,1.254,0,0,1,1.583,0,1.106,1.106,0,0,1,.4.906V8.373a1.037,1.037,0,0,1-.411.863A1.271,1.271,0,0,1,9.378,9.5ZM9.193,8.432l.007.007a.29.29,0,0,0,.356,0l.006-.006a.144.144,0,0,0,.008-.06V3.519c0-.048-.007-.11-.027-.126a.25.25,0,0,0-.166-.062.247.247,0,0,0-.166.062c-.021.016-.027.078-.027.126V8.373A.155.155,0,0,0,9.193,8.432ZM.693,9.5a1.265,1.265,0,0,1-.781-.264,1.073,1.073,0,0,1-.412-.9V3.9A3.79,3.79,0,0,1,.1,1.7,3.409,3.409,0,0,1,1.626.467,4.906,4.906,0,0,1,3.487.107,5.1,5.1,0,0,1,5.441.468,3.053,3.053,0,0,1,6.91,1.731a4.189,4.189,0,0,1,.521,2.193V8.332a1.032,1.032,0,0,1-.444.91,1.353,1.353,0,0,1-.769.237,1.3,1.3,0,0,1-.768-.243,1.04,1.04,0,0,1-.425-.9V3.924a1.583,1.583,0,0,0-.378-1.2,1.648,1.648,0,0,0-1.16-.364,1.758,1.758,0,0,0-1.153.384A1.4,1.4,0,0,0,1.907,3.9V8.332a1.075,1.075,0,0,1-.42.893A1.281,1.281,0,0,1,.693,9.5ZM3.487,1.107A3.912,3.912,0,0,0,2,1.394a2.392,2.392,0,0,0-1.084.875A2.826,2.826,0,0,0,.5,3.9V8.332a.236.236,0,0,0,.016.108.278.278,0,0,0,.177.06.288.288,0,0,0,.186-.069c.01-.008.028-.021.028-.1V3.9a2.353,2.353,0,0,1,.8-1.936A2.756,2.756,0,0,1,3.487,1.36a2.626,2.626,0,0,1,1.836.627,2.511,2.511,0,0,1,.7,1.937V8.332a.307.307,0,0,0,.011.093.309.309,0,0,0,.182.054.359.359,0,0,0,.2-.062.28.28,0,0,0,.01-.085V3.924a3.224,3.224,0,0,0-.376-1.673,2.045,2.045,0,0,0-1-.858A4.106,4.106,0,0,0,3.487,1.107ZM83.547,9.3H80.326a1.594,1.594,0,0,1-1.167-.448A1.578,1.578,0,0,1,78.7,7.685V1.76A1.493,1.493,0,0,1,79.181.634,1.548,1.548,0,0,1,80.265.208h3.079a1.109,1.109,0,0,1,.874.341,1.131,1.131,0,0,1,.278.766,1.1,1.1,0,0,1-.312.77,1.121,1.121,0,0,1-.84.336H81.133c0,.007,0,.016,0,.025V3.56c0,.009,0,.018,0,.026h2.007a1.09,1.09,0,0,1,.883.362,1.136,1.136,0,0,1,.27.745A1.124,1.124,0,0,1,83.139,5.8H81.132s0,0,0,0V7.038c0,.009,0,.018,0,.026h2.414a1.076,1.076,0,0,1,.891.381,1.181,1.181,0,0,1,.262.746,1.1,1.1,0,0,1-.31.769A1.123,1.123,0,0,1,83.547,9.3ZM80.265,1.208a.555.555,0,0,0-.4.159.492.492,0,0,0-.157.392V7.685a.585.585,0,0,0,.159.455.6.6,0,0,0,.463.158h3.221a.188.188,0,0,0,.118-.027.1.1,0,0,0,.034-.079.174.174,0,0,0-.036-.113.357.357,0,0,0-.116-.014H81.141a.954.954,0,0,1-1.009-1.026V5.8a.935.935,0,0,1,.99-1h2.018c.083,0,.1-.02.11-.029.043-.048.043-.071.043-.079a.137.137,0,0,0-.027-.092.391.391,0,0,0-.125-.015H81.122a.945.945,0,0,1-.99-1.026V2.447a.963.963,0,0,1,1.03-1.026h2.182a.193.193,0,0,0,.117-.027.1.1,0,0,0,.035-.079.17.17,0,0,0-.018-.092.449.449,0,0,0-.134-.015ZM52.783,8.266a3.077,3.077,0,0,1-1.723-.5,3.31,3.31,0,0,1-1.15-1.294,3.789,3.789,0,0,1-.4-1.722,3.557,3.557,0,0,1,.906-2.481,3.249,3.249,0,0,1,4.714,0,3.557,3.557,0,0,1,.906,2.481,3.8,3.8,0,0,1-.4,1.721A3.343,3.343,0,0,1,54.5,7.767,3.029,3.029,0,0,1,52.783,8.266Zm0-6.007a2.085,2.085,0,0,0-1.629.687,2.554,2.554,0,0,0-.644,1.807A2.76,2.76,0,0,0,50.8,6.025a2.291,2.291,0,0,0,.806.909,2.067,2.067,0,0,0,1.174.333,2.02,2.02,0,0,0,1.16-.331,2.322,2.322,0,0,0,.8-.911,2.77,2.77,0,0,0,.293-1.271,2.554,2.554,0,0,0-.644-1.807A2.061,2.061,0,0,0,52.783,2.26ZM23.629,8.266a3.075,3.075,0,0,1-1.722-.5,3.3,3.3,0,0,1-1.15-1.295,3.789,3.789,0,0,1-.4-1.721,3.56,3.56,0,0,1,.9-2.481,3.251,3.251,0,0,1,4.715,0,3.556,3.556,0,0,1,.9,2.481,3.789,3.789,0,0,1-.4,1.722,3.327,3.327,0,0,1-1.138,1.293A3.024,3.024,0,0,1,23.629,8.266Zm0-6.007A2.085,2.085,0,0,0,22,2.946a2.557,2.557,0,0,0-.643,1.807,2.76,2.76,0,0,0,.293,1.272,2.283,2.283,0,0,0,.806.909,2.066,2.066,0,0,0,1.173.333,2.016,2.016,0,0,0,1.159-.33,2.309,2.309,0,0,0,.8-.911,2.761,2.761,0,0,0,.293-1.272,2.554,2.554,0,0,0-.643-1.807A2.062,2.062,0,0,0,23.629,2.26Zm14.924-.041a1.436,1.436,0,0,1-1-.384A1.307,1.307,0,0,1,37.115.85a1.285,1.285,0,0,1,.438-.965,1.436,1.436,0,0,1,1-.384,1.39,1.39,0,0,1,.977.391,1.3,1.3,0,0,1,.42.958,1.321,1.321,0,0,1-.421.979A1.39,1.39,0,0,1,38.552,2.219Zm0-1.719a.447.447,0,0,0-.325.121.284.284,0,0,0-.113.228.307.307,0,0,0,.113.248.447.447,0,0,0,.325.121.388.388,0,0,0,.287-.115A.323.323,0,0,0,38.95.85a.3.3,0,0,0-.11-.234A.388.388,0,0,0,38.552.5ZM9.4,2.219a1.436,1.436,0,0,1-1-.384A1.307,1.307,0,0,1,7.961.85,1.285,1.285,0,0,1,8.4-.116,1.436,1.436,0,0,1,9.4-.5a1.39,1.39,0,0,1,.977.391A1.3,1.3,0,0,1,10.8.85a1.323,1.323,0,0,1-.42.978A1.391,1.391,0,0,1,9.4,2.219ZM9.4.5a.447.447,0,0,0-.325.121A.284.284,0,0,0,8.961.85a.307.307,0,0,0,.113.248.447.447,0,0,0,.325.121A.388.388,0,0,0,9.685,1.1.324.324,0,0,0,9.8.85.3.3,0,0,0,9.685.615.388.388,0,0,0,9.4.5Z" transform="translate(21.8 24.3)" fill="rgba(0,0,0,0)"/></g></svg>